<?xml version="1.0" standalone="no"?>
<!DOCTYPE svg PUBLIC "-//W3C//DTD SVG 20010904//EN"
 "http://www.w3.org/TR/2001/REC-SVG-20010904/DTD/svg10.dtd">
<svg version="1.0" xmlns="http://www.w3.org/2000/svg"
 width="48.000000pt" height="48.000000pt" viewBox="0 0 48.000000 48.000000"
 preserveAspectRatio="xMidYMid meet">

<g transform="translate(0.000000,48.000000) scale(0.100000,-0.100000)"
fill="#000000" stroke="none">
<path d="M240 442 c0 -5 9 -21 20 -35 11 -14 20 -33 20 -44 -1 -24 -82 -109
-112 -116 -13 -4 -50 -33 -82 -66 -58 -58 -59 -60 -46 -90 13 -31 46 -48 74
-38 19 8 116 125 116 140 0 7 22 34 48 60 41 41 53 47 75 42 15 -4 26 -10 25
-14 -4 -36 30 -43 62 -11 25 25 25 40 2 47 -17 4 -23 38 -10 59 4 5 0 20 -7
34 -11 20 -21 24 -61 26 -27 1 -66 5 -86 9 -23 4 -38 3 -38 -3z m65 -12 c3 -5
21 -10 38 -10 26 0 37 -7 57 -36 l24 -36 -23 -19 c-13 -11 -31 -19 -41 -19
-26 0 -70 39 -70 63 0 11 -10 31 -22 44 l-21 23 26 0 c14 0 29 -4 32 -10z
m115 -32 c0 -6 -7 -5 -15 2 -8 7 -15 17 -15 22 0 6 7 5 15 -2 8 -7 15 -17 15
-22z m-112 -81 c9 -10 1 -23 -33 -57 -38 -37 -46 -41 -60 -30 -14 12 -11 18
27 57 46 47 50 49 66 30z m142 -17 c0 -14 -49 -44 -58 -35 -4 3 4 15 17 26 26
21 41 24 41 9z"/>
<path d="M321 388 c-10 -26 3 -58 22 -57 9 0 9 2 0 6 -19 7 -16 50 5 62 16 10
16 10 -1 11 -10 0 -21 -10 -26 -22z"/>
</g>
</svg>
